# xmcd
#
# Track frame offsets:
# 150
# 12487
# 22685
# 41392
# 53895
# 67615
# 82882
# 96945
# 107595
# 123295
# 135397
#
# Disc length: 1951 seconds
#
#
# Revision: 0
# Processed by: cddbd v1.5.2PL0 Copyright (c) Steve Scherf et al.
# Submitted via: FreeRIP 2.70 
#
DISCID=76079d0b
DTITLE=Mark Rawlings - Tear Time
DYEAR=1999
DGENRE=Country
TTITLE0=Tear Time
TTITLE1=Can You Forgive Me?
TTITLE2=Long Black Veil
TTITLE3=Big Blue Diamond
TTITLE4=I Still Miss Someone
TTITLE5=Little Red Rooster
TTITLE6=Blue Eyes, Sunshine and Me
TTITLE7=Just Walk On By
TTITLE8=Ain't Got No Business Doing Business Today
TTITLE9=Hidden Love
TTITLE10=Lonesome 77203
EXTD=BlueMoon Promotions
EXTT0=
EXTT1=
EXTT2=
EXTT3=
EXTT4=
EXTT5=
EXTT6=
EXTT7=
EXTT8=
EXTT9=
EXTT10=
PLAYORDER=
